<svg xmlns="http://www.w3.org/2000/svg" version="1.1" xmlns:xlink="http://www.w3.org/1999/xlink" xmlns:svgjs="http://svgjs.dev/svgjs" width="1000" height="750" viewBox="0 0 1000 750"><rect width="1000" height="750" fill="#333333"></rect><g transform="matrix(0.834,0,0,0.834,82.82762550444215,99.16953076906987)"><svg viewBox="0 0 373 247" data-background-color="#333333" preserveAspectRatio="xMidYMid meet" height="662" width="1000" xmlns="http://www.w3.org/2000/svg" xmlns:xlink="http://www.w3.org/1999/xlink"><g id="tight-bounds" transform="matrix(1,0,0,1,0.07709314969193315,-0.09999764546023471)"><svg viewBox="0 0 372.84581370061613 247.2" height="247.2" width="372.84581370061613"><g><svg viewBox="0 0 372.84581370061613 247.2" height="247.2" width="372.84581370061613"><g><svg viewBox="0 0 372.84581370061613 247.2" height="247.2" width="372.84581370061613"><g id="textblocktransform"><svg viewBox="0 0 372.84581370061613 247.2" height="247.2" width="372.84581370061613" id="textblock"><g><svg viewBox="0 0 372.84581370061613 247.2" height="247.2" width="372.84581370061613"><g transform="matrix(1,0,0,1,0,0)"><svg width="372.84581370061613" viewBox="3.094871759414673 -39.54999923706055 60.405128479003906 40.04999923706055" height="247.2" data-palette-color="#7fc37e"><path d="M17 0.5L17 0.5Q13.8 0.5 11.08-0.43 8.35-1.35 6.35-3.05 4.35-4.75 3.3-7L3.3-7Q2.9-7.8 3.28-8.47 3.65-9.15 4.55-9.4L4.55-9.4Q5.25-9.6 5.93-9.25 6.6-8.9 6.95-8.2L6.95-8.2Q7.7-6.75 9.15-5.6 10.6-4.45 12.6-3.83 14.6-3.2 17-3.2L17-3.2Q19.65-3.2 21.7-4.08 23.75-4.95 24.93-6.63 26.1-8.3 26.1-10.7L26.1-10.7Q26.1-13.75 23.85-15.95 21.6-18.15 16.8-18.75L16.8-18.75Q10.95-19.45 7.65-22.38 4.35-25.3 4.35-29.55L4.35-29.55Q4.35-32.6 5.98-34.85 7.6-37.1 10.45-38.33 13.3-39.55 17-39.55L17-39.55Q19.75-39.55 22-38.68 24.25-37.8 25.93-36.38 27.6-34.95 28.65-33.25L28.65-33.25Q29.15-32.45 28.98-31.7 28.8-30.95 28.1-30.55L28.1-30.55Q27.35-30.2 26.58-30.45 25.8-30.7 25.4-31.4L25.4-31.4Q24.65-32.55 23.53-33.58 22.4-34.6 20.8-35.2 19.2-35.8 16.95-35.85L16.95-35.85Q13-35.85 10.6-34.18 8.2-32.5 8.2-29.3L8.2-29.3Q8.2-27.6 9.1-26.18 10-24.75 12.08-23.73 14.15-22.7 17.65-22.2L17.65-22.2Q23.9-21.3 26.93-18.38 29.95-15.45 29.95-10.75L29.95-10.75Q29.95-8.05 28.98-5.95 28-3.85 26.23-2.43 24.45-1 22.08-0.25 19.7 0.5 17 0.5ZM61.55 0L40.05 0Q39.25 0 38.67-0.55 38.1-1.1 38.1-1.95L38.1-1.95 38.1-37.1Q38.1-37.9 38.67-38.48 39.25-39.05 40.05-39.05L40.05-39.05Q40.85-39.05 41.42-38.48 42-37.9 42-37.1L42-37.1 42-3.7 61.55-3.7Q62.35-3.7 62.92-3.18 63.5-2.65 63.5-1.85L63.5-1.85Q63.5-1.05 62.92-0.53 62.35 0 61.55 0L61.55 0Z" opacity="1" transform="matrix(1,0,0,1,0,0)" fill="#7fc37e" class="undefined-text-0" data-fill-palette-color="primary" id="text-0"></path></svg></g></svg></g></svg></g></svg></g></svg></g><defs></defs></svg><rect width="372.84581370061613" height="247.2" fill="none" stroke="none" visibility="hidden"></rect></g></svg></g></svg>